<svg viewBox="0 0 500 126" fill="none" xmlns="http://www.w3.org/2000/svg">
  <!-- Water drop icon -->
  <path d="M45 20 C45 20 70 55 70 75 C70 90 58 100 45 100 C32 100 20 90 20 75 C20 55 45 20 45 20 Z" fill="#4FC3F7"/>
  <path d="M35 70 C35 70 40 60 45 60 C50 60 55 70 55 80 C55 88 50 92 45 92 C40 92 35 88 35 80 C35 75 35 70 35 70 Z" fill="#B3E5FC" opacity="0.6"/>
  
  <!-- DRIP text -->
  <text x="100" y="85" font-family="Arial, Helvetica, sans-serif" font-size="72" font-weight="bold" fill="white">DRIP</text>
  
  <!-- Explorer text -->
  <text x="310" y="85" font-family="Arial, Helvetica, sans-serif" font-size="32" fill="#9CA3AF">Explorer</text>
</svg>
